<?xml version="1.0" encoding="UTF-8" standalone="no"?>
<!DOCTYPE svg PUBLIC "-//W3C//DTD SVG 1.1//EN" "http://www.w3.org/Graphics/SVG/1.1/DTD/svg11.dtd">
<svg version="1.1" xmlns="http://www.w3.org/2000/svg" xmlns:xlink="http://www.w3.org/1999/xlink" preserveAspectRatio="xMidYMid meet" viewBox="245 245 145 145" width="640" height="170"><defs><path d="M5.98 382.18L623.39 384.18L618.76 329.85L607.72 329.85L591.72 329.85L585.05 324.18L574.72 325.18L552.39 325.18L545.05 322.18L534.39 317.18L530.84 314.51L521.04 305.18L513.04 305.18L503.71 311.85L502.38 316.18L498.71 318.85L487.38 321.18L482.38 318.85L475.71 323.18L467.71 325.18L456.38 321.18L437.04 317.18L424.23 319.76L414.57 317.18L404.57 314.51L399.23 311.85L392.23 307.18L387.9 307.18L383.9 303.18L373.9 305.18L368.9 303.18L362.06 298.85L349.73 307.18L343.73 314.51L340.06 312.85L337.06 311.85L329.06 309.85C325.29 309.4 321.93 310.07 319 311.85C316.07 313.62 313.42 317.4 311.06 323.18L305.73 325.18L298.73 323.18L292.73 325.18L281.4 327.85L278.06 327.85L268.73 327.85L261.06 329.85L250.4 331.18L244.06 329.85L233.15 327.85L227.73 323.18L218.15 318.85L213.81 318.85L204.81 316.18L198.15 311.85L192.15 317.18L185.48 316.18L181.48 318.85L181.48 323.18L173.48 325.18L173.48 321.18L169.48 318.85L160.15 309.85L151.48 314.51L142.81 312.85L138.85 314.51L126.48 319.76L111.15 323.18L99.81 323.18L90.81 323.18L84.81 317.18L75.48 312.85L65.81 312.85L48.15 316.18L39.81 322.18L30.83 321.18L5.98 382.18Z" id="b2qgUmnseH"></path><path d="M7.39 364.89L96.05 393.86L233.39 359.19L222.72 348.19L212.72 348.19L194.05 348.19L188.72 349.19L179.72 347.29L160.39 342.86L152.72 339.86L145.39 340.53L142 349.19L133.05 350.86L130.39 347.29L118.05 337.19L114.72 338.86L102.05 325.53L94.72 323.86L85.39 327.86L81.39 326.86L72.39 326.86L69.39 331.19L63.72 334.53L52.72 333.61L47.39 338.86L38.05 345.86L32.07 345.86L7.39 364.89Z" id="aOw8fswOG"></path><path d="M160.37 309.4L166.13 315.24L172.7 320.24L174.54 322.74L180.37 321.67L180.87 317.4L186.3 315.24L193.37 316.07L199.04 310.9L204.37 315.24L211.37 317.4L217.37 318.4L218.37 320.24L216.04 327.07L217.37 333.93L213.87 334.4L211.87 337.9L206.54 336.4L200.63 331.08L201.13 337.24L199.63 338.74L198.13 338.74L198.13 340.57L196.97 340.57L192.13 335.24L188.3 331.75L186.3 331.75L187.47 333.4L187.47 335.9L184.63 335.9L183.97 337.9L187.8 344.9L186.3 347.82L173.13 345.43L169.3 338.74L166.13 335.24L162.97 331.08L161.3 334.4L159.63 334.4L156.97 331.75L155.97 327.07L153.3 320.24L149.97 316.9L147.3 316.07L149.13 312.74L160.37 309.4Z" id="o1xgPKe1ib"></path><path d="M412.74 392.26L536.07 378.26L540.41 366.93L534.41 362.6L521.07 364.26L510.07 365.26L504.41 365.26L491.07 362.6L483.74 359.93L471.07 354.26L464.41 356.6L457.07 356.6L449.07 352.93L435.07 352.93L426.07 346.26L420.74 346.26L415.74 345.26L405.07 348.6L401.74 346.26L395.07 345.26L381.41 352.93L374.41 354.26L370.74 354.26L412.74 392.26Z" id="bYJ6RvpH6"></path><path d="M29.19 315.54L33.21 340.79C35.21 340.79 37.38 340.79 39.71 340.79C42.05 340.79 42.05 339.79 39.71 337.79L37.71 331.54L38.46 324.79L36.71 322.04L29.19 315.54Z" id="a1NsboJCvN"></path><path d="M59.21 314.04L77.21 314.04L72.21 317.29L67.96 317.29C62.8 316.79 59.21 317.38 57.21 319.04C55.21 320.71 55.88 323.46 59.21 327.29L56.46 331.04L56.46 334.04L50.21 335.54L51.71 332.04L50.21 326.29L47.21 321.54L48.21 317.29L59.21 314.04Z" id="d37Zryky3U"></path><path d="M158.99 389.89L354.99 400.23L351.68 356.23L331.68 340.23L326.68 340.23L316.27 340.23L311.6 338.89L304.6 340.23L299.27 337.23L292.27 336.33L281.42 343.89L271.42 350.89L267.76 346.23L261.09 345.23L256.42 343.89L249.76 341.56L244.76 346.23L237.42 348.89L229.76 353.56L229.76 357.56L226.76 356.23L216.76 356.23L210.09 360.56L199.76 361.89L191.42 360.56L185.42 357.56L176.76 356.23L164.42 357.56L155.42 360.56L147.42 367.89L141.76 371.89L158.99 389.89Z" id="cgXMMcKOL"></path><path d="M323.33 310.07L331.54 310.56L338.17 313.07L336.17 316.24L338.17 319.25L333.33 326.07L328.17 323.4L326.33 324.74L322.5 322.74L320 314.9L321.17 311.07L323.33 310.07Z" id="g50Fse0oC"></path><path d="M364.09 298.85L369.93 303.99L374.43 305.32L380.09 303.99L385.09 303.99L378.93 308.99L375.09 317.15L370.76 322.15L369.93 326.82L364.76 332.15L363.26 329.49L359.93 327.15L357.09 330.32L354.82 331.32L353.59 328.32L353.09 323.65L351.59 318.82L346.93 318.82L344.43 321.65L342.93 320L349.09 314.49L353.59 311.49L359.93 308.49L361.43 306.49L358.59 305.32L359.09 300.82L364.09 298.85Z" id="f11oWOXPqb"></path><path d="M380.43 315.99L378.76 316.65L376.93 318.82L375.26 321.32L378.09 325.32L380.43 321.32L383.43 321.99L383.43 318.82L380.43 312.49L380.43 315.99Z" id="dcOjhN1NZ"></path><path d="M394.26 317.15L399.43 321.99L399.93 324.82L401.76 327.82L404.43 330.49L404.43 336.99L406.43 336.99L407.59 340.32L402.43 346.82L399.09 345.65L398.43 341.15L389.43 330.49L386.59 326.82L388.43 323.99L389.76 318.65L394.26 317.15Z" id="e1CqVyByT"></path><path d="M413.43 336.32L419.43 342.53L423.43 342.99L419.43 337.32L411.09 331.82L407.26 328.82L413.43 336.32Z" id="f4af9iMmSM"></path><path d="M443.07 343.49L446.41 341.51L450.74 340.65L455.57 342.15L455.07 340.32L448.74 337.99L455.07 338.65L450.74 335.9L446.91 336.99L442.07 335.32L443.07 337.99L439.07 339.15L441.41 340.65L434.74 342.15L428.74 343.49L443.07 343.49Z" id="a2g89Wfs2D"></path><path d="M508.31 309.11L518.81 306.27L514.48 312.27L511.48 315.44L511.48 321.44L517.64 330.77L517.14 333.5L522.81 339.61L527.98 346.11L523.64 346.11L517.14 340.44L513.81 334.61L509.64 335.11L506.48 333.5L503.81 329.77L504.64 324.44L502.31 322.94L504.64 320L504.64 313.11L508.31 309.11Z" id="ad3PbQaI"></path><path d="M121.15 325.82C122.81 325.82 124.45 323.88 126.07 320C126.57 329.38 125.65 334.56 123.32 335.54C120.99 336.53 118.07 332.29 114.57 322.82C117.29 324.82 119.48 325.82 121.15 325.82Z" id="a1xamSdNgy"></path><path d="M422.49 378.57L529.57 390.53L535.07 371.82L516.07 364.07L513.07 365.57L508.89 364.07L505.32 366.32L499.82 366.32L496.06 367.03L491.57 368.82L486.32 371.07L482.32 368.82L477.07 367.03L472.07 362.32L466.57 359.57L463.32 358.82L460.32 358.82L458.07 356.32L452.32 354.53L448.32 357.07L444.57 360.32L440.07 362.32L436.57 366.32L427.82 369.82L422.49 378.57Z" id="a1OndWOYDh"></path><path d="M28.69 349.18L29.45 372.18L141.35 385.85L123.69 357.18L114.69 352.18L97.6 350.43L87.35 346.51L80.02 353.51L66.02 353.51L53.35 357.18L49.69 354.85L33.35 349.18L28.69 349.18Z" id="d24ty1R5v"></path><path d="M29.19 395.91L628.98 405.91L624.31 353.85L617.98 351.85L607.98 351.85L593.84 358.18L590.17 356.85L584.51 356.85L578.84 361.18L564.84 362.51L558.51 360.18L542.17 361.18L530.34 367.18L518 367.18L513 370.85L508.34 375.18L492.34 372.85L488 367.85L470.34 373.85L458.34 373.85L452.13 371.85L438.79 370.85L427.13 365.85L421.46 367.18L403.13 367.18L392.46 363.51L379.79 355.51L369.13 351.85L359.13 347.18L345.13 356.85L331.46 352.85L321.8 364.85L309.46 367.85L292.8 370.85L288.13 369.18L268.8 364.85L258.46 371.85L248.13 373.85L238.07 377.85L228.74 376.18L217.4 377.85L211.07 373.85L208.07 370.85L204.74 371.85L193.74 373.85L189.74 371.85L182.07 369.18L176.74 369.18L163.74 371.85L150.4 371.85L144.4 369.18L141.4 369.18L137.74 369.18L130.07 358.18L125.07 359.18L120.4 364.85L116.07 364.85L108.4 363.51L102.07 362.51L94.4 367.85L83.74 369.18L70.4 367.85L59.4 363.51L52.74 362.51L46.07 363.51L40.74 359.18L32.83 354.51L29.19 395.91Z" id="c46841aiJh"></path><path d="M532.48 320L535.98 327.27L538.98 332.44L541.64 335.44L546.48 334.61L538.48 324.11L533.81 316.77L532.48 320Z" id="cGpGVLXTd"></path></defs><g><g><g><use xlink:href="#b2qgUmnseH" opacity="1" fill="#bc98e0" fill-opacity="1"></use><g><use xlink:href="#b2qgUmnseH" opacity="1" fill-opacity="0" stroke="#000000" stroke-width="0" stroke-opacity="1"></use></g></g><g><use xlink:href="#aOw8fswOG" opacity="1" fill="#a16ed4" fill-opacity="1"></use><g><use xlink:href="#aOw8fswOG" opacity="1" fill-opacity="0" stroke="#000000" stroke-width="0" stroke-opacity="1"></use></g></g><g><use xlink:href="#o1xgPKe1ib" opacity="1" fill="#c7a9e6" fill-opacity="1"></use><g><use xlink:href="#o1xgPKe1ib" opacity="1" fill-opacity="0" stroke="#000000" stroke-width="0" stroke-opacity="1"></use></g></g><g><use xlink:href="#bYJ6RvpH6" opacity="1" fill="#a16ed4" fill-opacity="1"></use><g><use xlink:href="#bYJ6RvpH6" opacity="1" fill-opacity="0" stroke="#000000" stroke-width="0" stroke-opacity="1"></use></g></g><g><use xlink:href="#a1NsboJCvN" opacity="1" fill="#c7a9e6" fill-opacity="1"></use><g><use xlink:href="#a1NsboJCvN" opacity="1" fill-opacity="0" stroke="#000000" stroke-width="0" stroke-opacity="1"></use></g></g><g><use xlink:href="#d37Zryky3U" opacity="1" fill="#c7a9e6" fill-opacity="1"></use><g><use xlink:href="#d37Zryky3U" opacity="1" fill-opacity="0" stroke="#000000" stroke-width="0" stroke-opacity="1"></use></g></g><g><use xlink:href="#cgXMMcKOL" opacity="1" fill="#7537b2" fill-opacity="1"></use><g><use xlink:href="#cgXMMcKOL" opacity="1" fill-opacity="0" stroke="#000000" stroke-width="0" stroke-opacity="1"></use></g></g><g><use xlink:href="#g50Fse0oC" opacity="1" fill="#c7a9e6" fill-opacity="1"></use><g><use xlink:href="#g50Fse0oC" opacity="1" fill-opacity="0" stroke="#000000" stroke-width="0" stroke-opacity="1"></use></g></g><g><use xlink:href="#f11oWOXPqb" opacity="1" fill="#c7a9e6" fill-opacity="1"></use><g><use xlink:href="#f11oWOXPqb" opacity="1" fill-opacity="0" stroke="#000000" stroke-width="0" stroke-opacity="1"></use></g></g><g><use xlink:href="#dcOjhN1NZ" opacity="1" fill="#c7a9e6" fill-opacity="1"></use><g><use xlink:href="#dcOjhN1NZ" opacity="1" fill-opacity="0" stroke="#000000" stroke-width="0" stroke-opacity="1"></use></g></g><g><use xlink:href="#e1CqVyByT" opacity="1" fill="#c7a9e6" fill-opacity="1"></use><g><use xlink:href="#e1CqVyByT" opacity="1" fill-opacity="0" stroke="#000000" stroke-width="0" stroke-opacity="1"></use></g></g><g><use xlink:href="#f4af9iMmSM" opacity="1" fill="#c7a9e6" fill-opacity="1"></use><g><use xlink:href="#f4af9iMmSM" opacity="1" fill-opacity="0" stroke="#000000" stroke-width="0" stroke-opacity="1"></use></g></g><g><use xlink:href="#a2g89Wfs2D" opacity="1" fill="#c7a9e6" fill-opacity="1"></use><g><use xlink:href="#a2g89Wfs2D" opacity="1" fill-opacity="0" stroke="#000000" stroke-width="0" stroke-opacity="1"></use></g></g><g><use xlink:href="#ad3PbQaI" opacity="1" fill="#c7a9e6" fill-opacity="1"></use><g><use xlink:href="#ad3PbQaI" opacity="1" fill-opacity="0" stroke="#000000" stroke-width="0" stroke-opacity="1"></use></g></g><g><use xlink:href="#a1xamSdNgy" opacity="1" fill="#c7a9e6" fill-opacity="1"></use><g><use xlink:href="#a1xamSdNgy" opacity="1" fill-opacity="0" stroke="#000000" stroke-width="0" stroke-opacity="1"></use></g></g><g><use xlink:href="#a1OndWOYDh" opacity="1" fill="#66309c" fill-opacity="1"></use><g><use xlink:href="#a1OndWOYDh" opacity="1" fill-opacity="0" stroke="#000000" stroke-width="0" stroke-opacity="1"></use></g></g><g><use xlink:href="#d24ty1R5v" opacity="1" fill="#9054cd" fill-opacity="1"></use><g><use xlink:href="#d24ty1R5v" opacity="1" fill-opacity="0" stroke="#000000" stroke-width="0" stroke-opacity="1"></use></g></g><g><use xlink:href="#c46841aiJh" opacity="1" fill="#240331" fill-opacity="1"></use><g><use xlink:href="#c46841aiJh" opacity="1" fill-opacity="0" stroke="#000000" stroke-width="0" stroke-opacity="1"></use></g></g><g><use xlink:href="#cGpGVLXTd" opacity="1" fill="#c7a9e6" fill-opacity="1"></use><g><use xlink:href="#cGpGVLXTd" opacity="1" fill-opacity="0" stroke="#000000" stroke-width="0" stroke-opacity="1"></use></g></g></g></g></svg>